<svg version="1.1" xmlns="http://www.w3.org/2000/svg" xmlns:xlink="http://www.w3.org/1999/xlink" width="1360" height="345"><defs/><g><g><rect fill="#C0C0C0" stroke="none" x="60" y="104" width="141.6" height="15" transform="matrix(1 0 0 1 -43 -85)" fill-opacity="0.2"/></g><g><rect fill="#C0C0C0" stroke="none" x="60" y="118" width="354" height="308" transform="matrix(1 0 0 1 -43 -85)" fill-opacity="0.2"/></g><g><rect fill="#D8F2FF" stroke="none" x="53" y="112" width="354" height="307" transform="matrix(1 0 0 1 -43 -85)"/></g><g><path fill="none" stroke="#000000" paint-order="fill stroke markers" d=" M 10 27 L 364 27 L 364 334 L 10 334 L 10 27 Z Z" stroke-miterlimit="10" stroke-dasharray=""/></g><g><rect fill="#D8F2FF" stroke="none" x="53" y="97" width="141.6" height="15" transform="matrix(1 0 0 1 -43 -85)"/></g><g><path fill="none" stroke="#000000" paint-order="fill stroke markers" d=" M 10 12 L 151.6 12 L 151.6 27 L 10 27 L 10 12 Z Z" stroke-miterlimit="10" stroke-dasharray=""/></g><g><rect fill="#D8F2FF" stroke="none" x="53" y="111" width="354" height="308" transform="matrix(1 0 0 1 -43 -85)"/></g><g><path fill="none" stroke="#000000" paint-order="fill stroke markers" d=" M 10 26 L 364 26 L 364 334 L 10 334 L 10 26 Z Z" stroke-miterlimit="10" stroke-dasharray=""/></g><g><g><path fill="none" stroke="none"/><text fill="#000000" stroke="none" font-family="Arial" font-size="13px" font-style="normal" font-weight="bold" text-decoration="undefined" x="230.5" y="125.5" text-anchor="middle" dominant-baseline="central" transform="matrix(1 0 0 1 -43 -85)">Presentation tier</text></g></g><g><rect fill="#C0C0C0" stroke="none" x="504" y="102" width="164" height="15" transform="matrix(1 0 0 1 -43 -85)" fill-opacity="0.2"/></g><g><rect fill="#C0C0C0" stroke="none" x="504" y="116" width="410" height="310" transform="matrix(1 0 0 1 -43 -85)" fill-opacity="0.2"/></g><g><rect fill="#A3FFD1" stroke="none" x="497" y="110" width="410" height="309" transform="matrix(1 0 0 1 -43 -85)"/></g><g><path fill="none" stroke="#000000" paint-order="fill stroke markers" d=" M 454 25 L 864 25 L 864 334 L 454 334 L 454 25 Z Z" stroke-miterlimit="10" stroke-dasharray=""/></g><g><rect fill="#A3FFD1" stroke="none" x="497" y="95" width="164" height="15" transform="matrix(1 0 0 1 -43 -85)"/></g><g><path fill="none" stroke="#000000" paint-order="fill stroke markers" d=" M 454 10 L 618 10 L 618 25 L 454 25 L 454 10 Z Z" stroke-miterlimit="10" stroke-dasharray=""/></g><g><rect fill="#A3FFD1" stroke="none" x="497" y="109" width="410" height="310" transform="matrix(1 0 0 1 -43 -85)"/></g><g><path fill="none" stroke="#000000" paint-order="fill stroke markers" d=" M 454 24 L 864 24 L 864 334 L 454 334 L 454 24 Z Z" stroke-miterlimit="10" stroke-dasharray=""/></g><g><g><path fill="none" stroke="none"/><text fill="#000000" stroke="none" font-family="Arial" font-size="13px" font-style="normal" font-weight="bold" text-decoration="undefined" x="702.5" y="123.5" text-anchor="middle" dominant-baseline="central" transform="matrix(1 0 0 1 -43 -85)">Business Logic Tier</text></g></g><g><rect fill="#C0C0C0" stroke="none" x="1001" y="102" width="159.20000000000005" height="15" transform="matrix(1 0 0 1 -43 -85)" fill-opacity="0.2"/></g><g><rect fill="#C0C0C0" stroke="none" x="1001" y="116" width="398" height="311" transform="matrix(1 0 0 1 -43 -85)" fill-opacity="0.2"/></g><g><rect fill="#FFD8D8" stroke="none" x="994" y="110" width="398" height="310" transform="matrix(1 0 0 1 -43 -85)"/></g><g><path fill="none" stroke="#000000" paint-order="fill stroke markers" d=" M 951 25 L 1349 25 L 1349 335 L 951 335 L 951 25 Z Z" stroke-miterlimit="10" stroke-dasharray=""/></g><g><rect fill="#FFD8D8" stroke="none" x="994" y="95" width="159.20000000000005" height="15" transform="matrix(1 0 0 1 -43 -85)"/></g><g><path fill="none" stroke="#000000" paint-order="fill stroke markers" d=" M 951 10 L 1110.2 10 L 1110.2 25 L 951 25 L 951 10 Z Z" stroke-miterlimit="10" stroke-dasharray=""/></g><g><rect fill="#FFD8D8" stroke="none" x="994" y="109" width="398" height="311" transform="matrix(1 0 0 1 -43 -85)"/></g><g><path fill="none" stroke="#000000" paint-order="fill stroke markers" d=" M 951 24 L 1349 24 L 1349 335 L 951 335 L 951 24 Z Z" stroke-miterlimit="10" stroke-dasharray=""/></g><g><g><path fill="none" stroke="none"/><text fill="#000000" stroke="none" font-family="Arial" font-size="13px" font-style="normal" font-weight="bold" text-decoration="undefined" x="1193.5" y="123.5" text-anchor="middle" dominant-baseline="central" transform="matrix(1 0 0 1 -43 -85)">Data Tier</text></g></g><g><rect fill="#C0C0C0" stroke="none" x="149" y="187" width="152.18359375" height="45" transform="matrix(1 0 0 1 -43 -85)" fill-opacity="0.2"/></g><g><rect fill="#6DCEFF" stroke="none" x="142" y="180" width="152.18359375" height="45" transform="matrix(1 0 0 1 -43 -85)"/></g><g><path fill="none" stroke="#000000" paint-order="fill stroke markers" d=" M 99 95 L 251.18359375 95 L 251.18359375 140 L 99 140 L 99 95 Z Z" stroke-miterlimit="10" stroke-dasharray=""/></g><g><rect fill="#6DCEFF" stroke="none" x="132" y="187" width="20" height="10" transform="matrix(1 0 0 1 -43 -85)"/></g><g><path fill="none" stroke="#000000" paint-order="fill stroke markers" d=" M 89 102 L 109 102 L 109 112 L 89 112 L 89 102 Z Z" stroke-miterlimit="10" stroke-dasharray=""/></g><g><rect fill="#6DCEFF" stroke="none" x="132" y="207" width="20" height="10" transform="matrix(1 0 0 1 -43 -85)"/></g><g><path fill="none" stroke="#000000" paint-order="fill stroke markers" d=" M 89 122 L 109 122 L 109 132 L 89 132 L 89 122 Z Z" stroke-miterlimit="10" stroke-dasharray=""/></g><g><g><path fill="none" stroke="none"/><text fill="#000000" stroke="none" font-family="Arial" font-size="13px" font-style="normal" font-weight="bold" text-decoration="undefined" x="223.591796875" y="193.5" text-anchor="middle" dominant-baseline="central" transform="matrix(1 0 0 1 -43 -85)">Web browser</text><path fill="none" stroke="#000000" paint-order="fill stroke markers" d=" M 221.28662109375 115 L 139.89697265625 115" stroke-miterlimit="10" stroke-dasharray=""/></g></g><g><rect fill="#C0C0C0" stroke="none" x="149" y="257" width="152" height="45" transform="matrix(1 0 0 1 -43 -85)" fill-opacity="0.2"/></g><g><rect fill="#6DCEFF" stroke="none" x="142" y="250" width="152" height="45" transform="matrix(1 0 0 1 -43 -85)"/></g><g><path fill="none" stroke="#000000" paint-order="fill stroke markers" d=" M 99 165 L 251 165 L 251 210 L 99 210 L 99 165 Z Z" stroke-miterlimit="10" stroke-dasharray=""/></g><g><rect fill="#6DCEFF" stroke="none" x="132" y="257" width="20" height="10" transform="matrix(1 0 0 1 -43 -85)"/></g><g><path fill="none" stroke="#000000" paint-order="fill stroke markers" d=" M 89 172 L 109 172 L 109 182 L 89 182 L 89 172 Z Z" stroke-miterlimit="10" stroke-dasharray=""/></g><g><rect fill="#6DCEFF" stroke="none" x="132" y="277" width="20" height="10" transform="matrix(1 0 0 1 -43 -85)"/></g><g><path fill="none" stroke="#000000" paint-order="fill stroke markers" d=" M 89 192 L 109 192 L 109 202 L 89 202 L 89 192 Z Z" stroke-miterlimit="10" stroke-dasharray=""/></g><g><g><path fill="none" stroke="none"/><text fill="#000000" stroke="none" font-family="Arial" font-size="13px" font-style="normal" font-weight="bold" text-decoration="undefined" x="223.5" y="263.5" text-anchor="middle" dominant-baseline="central" transform="matrix(1 0 0 1 -43 -85)">Mobile app</text><path fill="none" stroke="#000000" paint-order="fill stroke markers" d=" M 214.444091796875 185 L 146.555908203125 185" stroke-miterlimit="10" stroke-dasharray=""/></g></g><g><rect fill="#C0C0C0" stroke="none" x="149" y="326" width="152.18359375" height="45" transform="matrix(1 0 0 1 -43 -85)" fill-opacity="0.2"/></g><g><rect fill="#6DCEFF" stroke="none" x="142" y="319" width="152.18359375" height="45" transform="matrix(1 0 0 1 -43 -85)"/></g><g><path fill="none" stroke="#000000" paint-order="fill stroke markers" d=" M 99 234 L 251.18359375 234 L 251.18359375 279 L 99 279 L 99 234 Z Z" stroke-miterlimit="10" stroke-dasharray=""/></g><g><rect fill="#6DCEFF" stroke="none" x="132" y="326" width="20" height="10" transform="matrix(1 0 0 1 -43 -85)"/></g><g><path fill="none" stroke="#000000" paint-order="fill stroke markers" d=" M 89 241 L 109 241 L 109 251 L 89 251 L 89 241 Z Z" stroke-miterlimit="10" stroke-dasharray=""/></g><g><rect fill="#6DCEFF" stroke="none" x="132" y="346" width="20" height="10" transform="matrix(1 0 0 1 -43 -85)"/></g><g><path fill="none" stroke="#000000" paint-order="fill stroke markers" d=" M 89 261 L 109 261 L 109 271 L 89 271 L 89 261 Z Z" stroke-miterlimit="10" stroke-dasharray=""/></g><g><g><path fill="none" stroke="none"/><text fill="#000000" stroke="none" font-family="Arial" font-size="13px" font-style="normal" font-weight="bold" text-decoration="undefined" x="223.591796875" y="332.5" text-anchor="middle" dominant-baseline="central" transform="matrix(1 0 0 1 -43 -85)">Desktop app</text><path fill="none" stroke="#000000" paint-order="fill stroke markers" d=" M 219.59814453125 254 L 141.58544921875 254" stroke-miterlimit="10" stroke-dasharray=""/></g></g><g><rect fill="#C0C0C0" stroke="none" x="523" y="247" width="36" height="15" transform="matrix(1 0 0 1 -43 -85)" fill-opacity="0.2"/></g><g><rect fill="#C0C0C0" stroke="none" x="523" y="261" width="90" height="65" transform="matrix(1 0 0 1 -43 -85)" fill-opacity="0.2"/></g><g><rect fill="#38FF9B" stroke="none" x="516" y="255" width="90" height="64" transform="matrix(1 0 0 1 -43 -85)"/></g><g><path fill="none" stroke="#000000" paint-order="fill stroke markers" d=" M 473 170 L 563 170 L 563 234 L 473 234 L 473 170 Z Z" stroke-miterlimit="10" stroke-dasharray=""/></g><g><rect fill="#38FF9B" stroke="none" x="516" y="240" width="36" height="15" transform="matrix(1 0 0 1 -43 -85)"/></g><g><path fill="none" stroke="#000000" paint-order="fill stroke markers" d=" M 473 155 L 509 155 L 509 170 L 473 170 L 473 155 Z Z" stroke-miterlimit="10" stroke-dasharray=""/></g><g><rect fill="#38FF9B" stroke="none" x="516" y="254" width="90" height="65" transform="matrix(1 0 0 1 -43 -85)"/></g><g><path fill="none" stroke="#000000" paint-order="fill stroke markers" d=" M 473 169 L 563 169 L 563 234 L 473 234 L 473 169 Z Z" stroke-miterlimit="10" stroke-dasharray=""/></g><g><g><path fill="none" stroke="none"/><text fill="#000000" stroke="none" font-family="Arial" font-size="13px" font-style="normal" font-weight="bold" text-decoration="undefined" x="561.5" y="268.5" text-anchor="middle" dominant-baseline="central" transform="matrix(1 0 0 1 -43 -85)">Deliveries</text></g></g><g><rect fill="#C0C0C0" stroke="none" x="634" y="245" width="39.200000000000045" height="15" transform="matrix(1 0 0 1 -43 -85)" fill-opacity="0.2"/></g><g><rect fill="#C0C0C0" stroke="none" x="634" y="259" width="98" height="67" transform="matrix(1 0 0 1 -43 -85)" fill-opacity="0.2"/></g><g><rect fill="#38FF9B" stroke="none" x="627" y="253" width="98" height="66" transform="matrix(1 0 0 1 -43 -85)"/></g><g><path fill="none" stroke="#000000" paint-order="fill stroke markers" d=" M 584 168 L 682 168 L 682 234 L 584 234 L 584 168 Z Z" stroke-miterlimit="10" stroke-dasharray=""/></g><g><rect fill="#38FF9B" stroke="none" x="627" y="238" width="39.200000000000045" height="15" transform="matrix(1 0 0 1 -43 -85)"/></g><g><path fill="none" stroke="#000000" paint-order="fill stroke markers" d=" M 584 153 L 623.2 153 L 623.2 168 L 584 168 L 584 153 Z Z" stroke-miterlimit="10" stroke-dasharray=""/></g><g><rect fill="#38FF9B" stroke="none" x="627" y="252" width="98" height="67" transform="matrix(1 0 0 1 -43 -85)"/></g><g><path fill="none" stroke="#000000" paint-order="fill stroke markers" d=" M 584 167 L 682 167 L 682 234 L 584 234 L 584 167 Z Z" stroke-miterlimit="10" stroke-dasharray=""/></g><g><g><path fill="none" stroke="none"/><text fill="#000000" stroke="none" font-family="Arial" font-size="13px" font-style="normal" font-weight="bold" text-decoration="undefined" x="676.5" y="266.5" text-anchor="middle" dominant-baseline="central" transform="matrix(1 0 0 1 -43 -85)">Payments</text></g></g><g><rect fill="#C0C0C0" stroke="none" x="1131" y="258" width="152.18359375" height="45" transform="matrix(1 0 0 1 -43 -85)" fill-opacity="0.2"/></g><g><rect fill="#FFA182" stroke="none" x="1124" y="251" width="152.18359375" height="45" transform="matrix(1 0 0 1 -43 -85)"/></g><g><path fill="none" stroke="#000000" paint-order="fill stroke markers" d=" M 1081 166 L 1233.18359375 166 L 1233.18359375 211 L 1081 211 L 1081 166 Z Z" stroke-miterlimit="10" stroke-dasharray=""/></g><g><rect fill="#FFA182" stroke="none" x="1114" y="258" width="20" height="10" transform="matrix(1 0 0 1 -43 -85)"/></g><g><path fill="none" stroke="#000000" paint-order="fill stroke markers" d=" M 1071 173 L 1091 173 L 1091 183 L 1071 183 L 1071 173 Z Z" stroke-miterlimit="10" stroke-dasharray=""/></g><g><rect fill="#FFA182" stroke="none" x="1114" y="278" width="20" height="10" transform="matrix(1 0 0 1 -43 -85)"/></g><g><path fill="none" stroke="#000000" paint-order="fill stroke markers" d=" M 1071 193 L 1091 193 L 1091 203 L 1071 203 L 1071 193 Z Z" stroke-miterlimit="10" stroke-dasharray=""/></g><g><g><path fill="none" stroke="none"/><text fill="#000000" stroke="none" font-family="Arial" font-size="13px" font-style="normal" font-weight="bold" text-decoration="undefined" x="1205.591796875" y="264.5" text-anchor="middle" dominant-baseline="central" transform="matrix(1 0 0 1 -43 -85)">Database</text><path fill="none" stroke="#000000" paint-order="fill stroke markers" d=" M 1191.495849609375 186 L 1133.687744140625 186" stroke-miterlimit="10" stroke-dasharray=""/></g></g><g><path fill="none" stroke="#000000" paint-order="fill stroke markers" d=" M 365 173 L 453 172" stroke-miterlimit="10" stroke-dasharray="3"/></g><g><path fill="none" stroke="#000000" paint-order="fill stroke markers" d=" M 442.8858135840713 176.32472347599742 L 453 172 L 442.79014890247754 167.90623149574637" stroke-miterlimit="10" stroke-dasharray=""/></g><g><path fill="none" stroke="#000000" paint-order="fill stroke markers" d=" M 865 172 L 950 172" stroke-miterlimit="10" stroke-dasharray="3"/></g><g><path fill="none" stroke="#000000" paint-order="fill stroke markers" d=" M 939.8373251423759 176.209517756016 L 950 172 L 939.8373251423758 167.790482243984" stroke-miterlimit="10" stroke-dasharray=""/></g><g><rect fill="#C0C0C0" stroke="none" x="522" y="153" width="35.200000000000045" height="15" transform="matrix(1 0 0 1 -43 -85)" fill-opacity="0.2"/></g><g><rect fill="#C0C0C0" stroke="none" x="522" y="167" width="88" height="68" transform="matrix(1 0 0 1 -43 -85)" fill-opacity="0.2"/></g><g><rect fill="#38FF9B" stroke="none" x="515" y="161" width="88" height="67" transform="matrix(1 0 0 1 -43 -85)"/></g><g><path fill="none" stroke="#000000" paint-order="fill stroke markers" d=" M 472 76 L 560 76 L 560 143 L 472 143 L 472 76 Z Z" stroke-miterlimit="10" stroke-dasharray=""/></g><g><rect fill="#38FF9B" stroke="none" x="515" y="146" width="35.200000000000045" height="15" transform="matrix(1 0 0 1 -43 -85)"/></g><g><path fill="none" stroke="#000000" paint-order="fill stroke markers" d=" M 472 61 L 507.20000000000005 61 L 507.20000000000005 76 L 472 76 L 472 61 Z Z" stroke-miterlimit="10" stroke-dasharray=""/></g><g><rect fill="#38FF9B" stroke="none" x="515" y="160" width="88" height="68" transform="matrix(1 0 0 1 -43 -85)"/></g><g><path fill="none" stroke="#000000" paint-order="fill stroke markers" d=" M 472 75 L 560 75 L 560 143 L 472 143 L 472 75 Z Z" stroke-miterlimit="10" stroke-dasharray=""/></g><g><g><path fill="none" stroke="none"/><text fill="#000000" stroke="none" font-family="Arial" font-size="13px" font-style="normal" font-weight="bold" text-decoration="undefined" x="559.5" y="174.5" text-anchor="middle" dominant-baseline="central" transform="matrix(1 0 0 1 -43 -85)">Orders</text></g></g><g><rect fill="#C0C0C0" stroke="none" x="523" y="337" width="36.799999999999955" height="15" transform="matrix(1 0 0 1 -43 -85)" fill-opacity="0.2"/></g><g><rect fill="#C0C0C0" stroke="none" x="523" y="351" width="92" height="67" transform="matrix(1 0 0 1 -43 -85)" fill-opacity="0.2"/></g><g><rect fill="#38FF9B" stroke="none" x="516" y="345" width="92" height="66" transform="matrix(1 0 0 1 -43 -85)"/></g><g><path fill="none" stroke="#000000" paint-order="fill stroke markers" d=" M 473 260 L 565 260 L 565 326 L 473 326 L 473 260 Z Z" stroke-miterlimit="10" stroke-dasharray=""/></g><g><rect fill="#38FF9B" stroke="none" x="516" y="330" width="36.799999999999955" height="15" transform="matrix(1 0 0 1 -43 -85)"/></g><g><path fill="none" stroke="#000000" paint-order="fill stroke markers" d=" M 473 245 L 509.79999999999995 245 L 509.79999999999995 260 L 473 260 L 473 245 Z Z" stroke-miterlimit="10" stroke-dasharray=""/></g><g><rect fill="#38FF9B" stroke="none" x="516" y="344" width="92" height="67" transform="matrix(1 0 0 1 -43 -85)"/></g><g><path fill="none" stroke="#000000" paint-order="fill stroke markers" d=" M 473 259 L 565 259 L 565 326 L 473 326 L 473 259 Z Z" stroke-miterlimit="10" stroke-dasharray=""/></g><g><g><path fill="none" stroke="none"/><text fill="#000000" stroke="none" font-family="Arial" font-size="13px" font-style="normal" font-weight="bold" text-decoration="undefined" x="562.5" y="358.5" text-anchor="middle" dominant-baseline="central" transform="matrix(1 0 0 1 -43 -85)">Incidents</text></g></g><g><rect fill="#C0C0C0" stroke="none" x="633" y="153" width="38.799999999999955" height="15" transform="matrix(1 0 0 1 -43 -85)" fill-opacity="0.2"/></g><g><rect fill="#C0C0C0" stroke="none" x="633" y="167" width="97" height="66" transform="matrix(1 0 0 1 -43 -85)" fill-opacity="0.2"/></g><g><rect fill="#38FF9B" stroke="none" x="626" y="161" width="97" height="65" transform="matrix(1 0 0 1 -43 -85)"/></g><g><path fill="none" stroke="#000000" paint-order="fill stroke markers" d=" M 583 76 L 680 76 L 680 141 L 583 141 L 583 76 Z Z" stroke-miterlimit="10" stroke-dasharray=""/></g><g><rect fill="#38FF9B" stroke="none" x="626" y="146" width="38.799999999999955" height="15" transform="matrix(1 0 0 1 -43 -85)"/></g><g><path fill="none" stroke="#000000" paint-order="fill stroke markers" d=" M 583 61 L 621.8 61 L 621.8 76 L 583 76 L 583 61 Z Z" stroke-miterlimit="10" stroke-dasharray=""/></g><g><rect fill="#38FF9B" stroke="none" x="626" y="160" width="97" height="66" transform="matrix(1 0 0 1 -43 -85)"/></g><g><path fill="none" stroke="#000000" paint-order="fill stroke markers" d=" M 583 75 L 680 75 L 680 141 L 583 141 L 583 75 Z Z" stroke-miterlimit="10" stroke-dasharray=""/></g><g><g><path fill="none" stroke="none"/><text fill="#000000" stroke="none" font-family="Arial" font-size="13px" font-style="normal" font-weight="bold" text-decoration="undefined" x="675" y="174.5" text-anchor="middle" dominant-baseline="central" transform="matrix(1 0 0 1 -43 -85)">Statistics</text></g></g><g><rect fill="#C0C0C0" stroke="none" x="774" y="352" width="109.18359375" height="45" transform="matrix(1 0 0 1 -43 -85)" fill-opacity="0.2"/></g><g><rect fill="#FFFF91" stroke="none" x="767" y="345" width="109.18359375" height="45" transform="matrix(1 0 0 1 -43 -85)"/></g><g><path fill="none" stroke="#000000" paint-order="fill stroke markers" d=" M 724 260 L 833.18359375 260 L 833.18359375 305 L 724 305 L 724 260 Z Z" stroke-miterlimit="10" stroke-dasharray=""/></g><g><rect fill="#FFFF91" stroke="none" x="757" y="352" width="20" height="10" transform="matrix(1 0 0 1 -43 -85)"/></g><g><path fill="none" stroke="#000000" paint-order="fill stroke markers" d=" M 714 267 L 734 267 L 734 277 L 714 277 L 714 267 Z Z" stroke-miterlimit="10" stroke-dasharray=""/></g><g><rect fill="#FFFF91" stroke="none" x="757" y="372" width="20" height="10" transform="matrix(1 0 0 1 -43 -85)"/></g><g><path fill="none" stroke="#000000" paint-order="fill stroke markers" d=" M 714 287 L 734 287 L 734 297 L 714 297 L 714 287 Z Z" stroke-miterlimit="10" stroke-dasharray=""/></g><g><g><path fill="none" stroke="none"/><text fill="#000000" stroke="none" font-family="Arial" font-size="13px" font-style="normal" font-weight="bold" text-decoration="undefined" x="827.091796875" y="358.5" text-anchor="middle" dominant-baseline="central" transform="matrix(1 0 0 1 -43 -85)">Stripe</text><path fill="none" stroke="#000000" paint-order="fill stroke markers" d=" M 802.5126953125 280 L 765.6708984375 280" stroke-miterlimit="10" stroke-dasharray=""/></g></g><g><path fill="none" stroke="#000000" paint-order="fill stroke markers" d=" M 683 225 L 737 259" stroke-miterlimit="10" stroke-dasharray="3"/></g><g><path fill="none" stroke="#000000" paint-order="fill stroke markers" d=" M 726.1571238729392 257.1474241464338 L 737 259 L 730.6428977117088 250.0229598142705" stroke-miterlimit="10" stroke-dasharray=""/></g><g><g><path fill="none" stroke="none"/><text fill="#000000" stroke="none" font-family="Arial" font-size="13px" font-style="normal" font-weight="normal" text-decoration="undefined" x="421" y="266" text-anchor="start" dominant-baseline="text-before-edge" transform="matrix(1 0 0 1 -43 -85)">HTTP/S</text></g></g><g><g><path fill="none" stroke="none"/><text fill="#000000" stroke="none" font-family="Arial" font-size="13px" font-style="normal" font-weight="normal" text-decoration="undefined" x="421" y="281" text-anchor="start" dominant-baseline="text-before-edge" transform="matrix(1 0 0 1 -43 -85)">protocol</text></g></g></g></svg>